<?xml version="1.0" encoding="utf-8"?>
<!-- Generator: Adobe Illustrator 27.0.1, SVG Export Plug-In . SVG Version: 6.00 Build 0)  -->
<svg version="1.1" id="Capa_1" xmlns="http://www.w3.org/2000/svg" xmlns:xlink="http://www.w3.org/1999/xlink" x="0px" y="0px"
	 viewBox="0 0 1116 296" style="enable-background:new 0 0 1116 296;" xml:space="preserve">
<g>
	<path d="M98.7,42l27.8-1.5L121,11.8l-1.2,0.1c-31,1.4-51.6,6.2-64.9,15.4c-13,8.9-19,22-19,41.2v12.2H5.4v24.9h30.5v173.1h34H70
		V105.6h55V80.7H69V65.2C69,48.3,72.7,43.5,98.7,42z"/>
	<path d="M289,240.3V135.4c0-38.9-23.6-58.6-70-58.6c-24.1,0-42.9,5.4-55.9,16c-12.6,10.3-19.1,25-19.4,43.7v1.2L177,144v-1.7
		c-0.1-13.8,3.3-24.3,10.2-31.2c6.9-7,17.6-10.5,31.7-10.5c24.9,0,36.5,11.2,36.5,35.4v20.9l-42.3,10.2
		c-51.7,12.5-72.8,32.1-72.8,67.5c0,29.4,20,47.7,52.3,47.7c33.1,0,60.5-20.7,70.1-53l3.7,0.9c-5.3,21.9-4.9,34.6,1.2,42.5
		c5.1,6.5,14,9.6,28.2,9.7c3.3,0,6.4-0.2,8.4-0.8l0.9-0.2l6-24.6l-10.8-0.4C291.3,256.1,289,254.4,289,240.3z M203.1,258.1
		c-17.5,0-28-10-28-26.7c0-22.8,13.4-34.6,49.5-43.5l30.8-7.2h0.1v19.8C255.5,232.8,232.5,258.1,203.1,258.1z"/>
	<path d="M434,77.6c-32,0-55,17.9-66.6,51.8l-3.8-1.3c7-22.6,10.2-40.3,10.2-57.1V15.7h-34.2v263h34.2l-0.1-1.5
		c-0.6-9.9-5.1-27.1-10.1-45.5l3.8-1.3c11.9,34.1,34.3,51.4,66.4,51.4c23,0,40.9-7.5,53.3-22.4c12.1-14.8,18.2-36.5,18.2-64.6v-30.3
		c0-28-6.2-49.7-18.3-64.5C474.9,85.1,457,77.6,434,77.6z M470.4,164.2v30.7c0,41.7-15.6,62.8-46.4,62.8c-32.4,0-50.3-24-50.3-67.6
		v-20.8c0-43.6,17.9-67.6,50.3-67.6C454.8,101.7,470.4,122.7,470.4,164.2z"/>
	<path d="M631.9,77.6c-32,0-55,17.9-66.6,51.8l-3.8-1.3c7-22.7,10.2-40.3,10.2-57.1V15.7h-34.2v263h34.3l-0.1-1.5
		c-0.6-9.9-5.1-27.1-10.1-45.5l3.8-1.3c11.9,34.1,34.3,51.4,66.4,51.4c23,0,40.9-7.5,53.1-22.4c12.1-14.8,18.2-36.5,18.2-64.6v-30.3
		c0-28-6.1-49.7-18.2-64.5C672.8,85.1,654.9,77.6,631.9,77.6z M668.4,164.2v30.7c0,41.7-15.6,62.8-46.4,62.8
		c-32.4,0-50.3-24-50.3-67.6v-20.8c0-43.6,17.9-67.6,50.3-67.6C652.7,101.7,668.4,122.7,668.4,164.2z"/>
	<path d="M835.4,75.6c-19.6,1-34.1,5.8-45.4,15.2c-10.6,8.9-19,22.1-26.1,41.6l-3.6-1.3c7-22.7,10.3-37.4,10.8-49l0.1-1.4H736v198
		h34.1v-97.3c0-48.6,15.5-70.6,51.7-73.7l20.9-1.6l-6.1-30.6L835.4,75.6z"/>
	<rect x="867" y="15.6" width="39.2" height="35.3"/>
	<rect x="869.6" y="80.7" width="34" height="198"/>
	<path d="M1065.2,210.6l-0.1,1.5c-1.9,31-17,46.1-46,46.1c-32.1,0-48.4-21.9-48.4-65v-29c0-41.9,16.3-63.1,48.3-63.1
		c28.9,0,43.7,15.9,45.1,48.7l0.1,1.6l33.8-6.1l-0.1-1.2c-1.3-21.5-8.9-38.3-22.7-49.9c-13.6-11.4-32.4-17.2-56-17.2
		c-26.9,0-47.7,7.7-61.9,22.8c-14.2,15.1-21.4,37.4-21.4,66.1v25.7c0,29.4,7.2,52.1,21.3,67.5c14.1,15.4,35,23.3,61.9,23.3
		c0.2,0,0.4,0,0.6,0c23.3,0,42.1-5.5,55.7-16.1c14.2-11.2,22.3-27.4,24.1-48.3l0.1-1.3L1065.2,210.6z"/>
</g>
</svg>
